<svg width="32" height="32" viewBox="0 0 32 32" fill="none" xmlns="http://www.w3.org/2000/svg">
  <rect width="32" height="32" fill="#C68653"/>
  
  <!-- Outer petals -->
  <path d="M16 4 
           C20 6 22 8 24 12
           C26 16 24 20 20 22
           C22 24 24 26 22 30
           C20 32 18 32 16 30
           C14 32 12 32 10 30
           C8 26 10 24 12 22
           C8 20 6 16 8 12
           C10 8 14 6 16 4 Z" 
        fill="#8D4926" 
        stroke="#000000" 
        stroke-width="0.5"/>
  
  <!-- Middle petals -->
  <path d="M16 6
           C18 7 20 9 21 12
           C22 15 21 18 18 19
           C20 21 21 23 20 26
           C19 28 18 28 16 27
           C14 28 13 28 12 26
           C11 23 12 21 14 19
           C11 18 10 15 11 12
           C12 9 14 7 16 6 Z" 
        fill="#D49B6A" 
        stroke="#000000" 
        stroke-width="0.5"/>
  
  <!-- Inner petals -->
  <path d="M16 8
           C17 9 18 10 18.5 12
           C19 14 18.5 16 17 17
           C18 18 18.5 20 18 22
           C17.5 24 17 24 16 23
           C15 24 14.5 24 14 22
           C13.5 20 14 18 15 17
           C13.5 16 13 14 13.5 12
           C14 10 15 9 16 8 Z" 
        fill="#E8B78A" 
        stroke="#000000" 
        stroke-width="0.3"/>
  
  <!-- Center -->
  <circle cx="16" cy="16" r="2" fill="#F4D4A7" stroke="#000000" stroke-width="0.3"/>
</svg>